<svg xmlns="http://www.w3.org/2000/svg" viewBox="0 0 1000 324" fill="none">
  <path d="M413.4 2.4L348.5 321.6H281.2L346.1 2.4H413.4Z" fill="white"/>
  <path d="M679.2 6.8C665.8 1.6 644.4 0 619.2 0C547.6 0 497.6 37.2 497.2 90.4C496.8 129.6 533.6 151.6 561.6 164.8C590.4 178.4 600 187.2 600 199.2C599.6 217.6 577.6 226 557.2 226C529.2 226 514.4 222 491.6 212.4L482 207.6L471.6 270C488.4 277.6 518 284 548.8 284.4C625.2 284.4 674 248 674.4 191.6C674.8 160.8 655.2 137.2 612 118C586 105.2 570.4 96.8 570.4 84C570.8 72.4 583.6 60.4 612.4 60.4C636 60 653.2 65.6 666.4 71.2L672.8 74.4L683.6 13.2L679.2 6.8Z" fill="white"/>
  <path d="M768.8 211.6C774.4 196 798.4 131.2 798.4 131.2C798 131.6 803.6 116 807.2 106L811.6 128.8C811.6 128.8 826.4 200 829.6 211.6H768.8ZM863.6 2.4H810.8C793.6 2.4 780.4 7.6 772.8 25.6L669.2 321.6H745.6C745.6 321.6 758.4 284.8 761.2 277.2C769.6 277.2 844 277.2 854.4 277.2C856.8 287.2 864.4 321.6 864.4 321.6H932L863.6 2.4Z" fill="white"/>
  <path d="M233.2 2.4L162 218L154 178C140.4 131.6 96 81.6 46.4 56.8L111.2 321.2H188L310 2.4H233.2Z" fill="white"/>
  <path d="M118.8 2.4H2.4L1.2 8.4C93.6 30.8 155.2 86.4 178 156L155.2 26C151.2 8.4 138 3.2 121.2 2.4H118.8Z" fill="#FAA61A"/>
</svg>
